<mxfile host="app.diagrams.net" modified="2023-12-13T07:06:17.252Z" agent="Mozilla/5.0 (Windows NT 10.0; Win64; x64; rv:120.0) Gecko/20100101 Firefox/120.0" etag="59a9Cw-Zyg1g0Kt03foZ" version="22.1.8" type="device">
  <diagram name="PÃ¡gina-1" id="m9Q8dOLF6V6BruHB6Kec">
    <mxGraphModel dx="1120" dy="470" grid="1" gridSize="10" guides="1" tooltips="1" connect="1" arrows="1" fold="1" page="1" pageScale="1" pageWidth="850" pageHeight="1100" math="0" shadow="0">
      <root>
        <mxCell id="0" />
        <mxCell id="1" parent="0" />
        <mxCell id="noH4qmnDrZ403niCY_iX-29" value="descripcion" style="ellipse;whiteSpace=wrap;html=1;strokeColor=default;align=center;verticalAlign=middle;fontFamily=Helvetica;fontSize=12;fontColor=default;fillColor=default;" parent="1" vertex="1">
          <mxGeometry x="1260" y="505" width="90" height="30" as="geometry" />
        </mxCell>
        <mxCell id="vPDebMbm3ik4Oxo3N3er-14" style="edgeStyle=orthogonalEdgeStyle;rounded=0;orthogonalLoop=1;jettySize=auto;html=1;exitX=1;exitY=0.5;exitDx=0;exitDy=0;entryX=0;entryY=0.5;entryDx=0;entryDy=0;" parent="1" source="vPDebMbm3ik4Oxo3N3er-3" target="vPDebMbm3ik4Oxo3N3er-4" edge="1">
          <mxGeometry relative="1" as="geometry" />
        </mxCell>
        <mxCell id="vPDebMbm3ik4Oxo3N3er-15" style="edgeStyle=orthogonalEdgeStyle;rounded=0;orthogonalLoop=1;jettySize=auto;html=1;" parent="1" source="vPDebMbm3ik4Oxo3N3er-3" target="vPDebMbm3ik4Oxo3N3er-6" edge="1">
          <mxGeometry relative="1" as="geometry" />
        </mxCell>
        <mxCell id="vPDebMbm3ik4Oxo3N3er-3" value="materias" style="rounded=0;whiteSpace=wrap;html=1;" parent="1" vertex="1">
          <mxGeometry x="310" y="360" width="120" height="60" as="geometry" />
        </mxCell>
        <mxCell id="vPDebMbm3ik4Oxo3N3er-17" style="edgeStyle=orthogonalEdgeStyle;rounded=0;orthogonalLoop=1;jettySize=auto;html=1;exitX=1;exitY=0.5;exitDx=0;exitDy=0;entryX=0;entryY=0.5;entryDx=0;entryDy=0;" parent="1" source="vPDebMbm3ik4Oxo3N3er-4" target="vPDebMbm3ik4Oxo3N3er-5" edge="1">
          <mxGeometry relative="1" as="geometry" />
        </mxCell>
        <mxCell id="vPDebMbm3ik4Oxo3N3er-4" value="&lt;b&gt;imparte &lt;/b&gt;" style="rhombus;whiteSpace=wrap;html=1;" parent="1" vertex="1">
          <mxGeometry x="510" y="350" width="80" height="80" as="geometry" />
        </mxCell>
        <mxCell id="vPDebMbm3ik4Oxo3N3er-18" style="edgeStyle=orthogonalEdgeStyle;rounded=0;orthogonalLoop=1;jettySize=auto;html=1;" parent="1" source="vPDebMbm3ik4Oxo3N3er-5" target="vPDebMbm3ik4Oxo3N3er-8" edge="1">
          <mxGeometry relative="1" as="geometry" />
        </mxCell>
        <mxCell id="K5R6cuAaFVcVwl4AerRk-5" style="edgeStyle=orthogonalEdgeStyle;rounded=0;orthogonalLoop=1;jettySize=auto;html=1;entryX=0.5;entryY=1;entryDx=0;entryDy=0;" parent="1" source="vPDebMbm3ik4Oxo3N3er-5" target="izEPtNt3eDwg3tz8a0CL-4" edge="1">
          <mxGeometry relative="1" as="geometry" />
        </mxCell>
        <mxCell id="vPDebMbm3ik4Oxo3N3er-5" value="Maestros" style="rounded=0;whiteSpace=wrap;html=1;" parent="1" vertex="1">
          <mxGeometry x="650" y="390" width="120" height="60" as="geometry" />
        </mxCell>
        <mxCell id="K5R6cuAaFVcVwl4AerRk-1" style="edgeStyle=orthogonalEdgeStyle;rounded=0;orthogonalLoop=1;jettySize=auto;html=1;" parent="1" source="vPDebMbm3ik4Oxo3N3er-6" target="vPDebMbm3ik4Oxo3N3er-24" edge="1">
          <mxGeometry relative="1" as="geometry" />
        </mxCell>
        <mxCell id="vPDebMbm3ik4Oxo3N3er-6" value="se toman" style="rhombus;whiteSpace=wrap;html=1;" parent="1" vertex="1">
          <mxGeometry x="330" y="480" width="80" height="80" as="geometry" />
        </mxCell>
        <mxCell id="vPDebMbm3ik4Oxo3N3er-7" value="&lt;b&gt;edificio&lt;/b&gt;" style="rounded=0;whiteSpace=wrap;html=1;" parent="1" vertex="1">
          <mxGeometry x="720" y="670" width="120" height="60" as="geometry" />
        </mxCell>
        <mxCell id="vPDebMbm3ik4Oxo3N3er-19" style="edgeStyle=orthogonalEdgeStyle;rounded=0;orthogonalLoop=1;jettySize=auto;html=1;" parent="1" source="vPDebMbm3ik4Oxo3N3er-8" target="vPDebMbm3ik4Oxo3N3er-9" edge="1">
          <mxGeometry relative="1" as="geometry" />
        </mxCell>
        <mxCell id="vPDebMbm3ik4Oxo3N3er-8" value="tiene" style="rhombus;whiteSpace=wrap;html=1;" parent="1" vertex="1">
          <mxGeometry x="830" y="350" width="80" height="80" as="geometry" />
        </mxCell>
        <mxCell id="vPDebMbm3ik4Oxo3N3er-20" style="edgeStyle=orthogonalEdgeStyle;rounded=0;orthogonalLoop=1;jettySize=auto;html=1;" parent="1" source="vPDebMbm3ik4Oxo3N3er-9" target="vPDebMbm3ik4Oxo3N3er-10" edge="1">
          <mxGeometry relative="1" as="geometry" />
        </mxCell>
        <mxCell id="vPDebMbm3ik4Oxo3N3er-9" value="&lt;b&gt;asistencia&lt;/b&gt;" style="rounded=0;whiteSpace=wrap;html=1;" parent="1" vertex="1">
          <mxGeometry x="970" y="360" width="120" height="60" as="geometry" />
        </mxCell>
        <mxCell id="vPDebMbm3ik4Oxo3N3er-21" style="edgeStyle=orthogonalEdgeStyle;rounded=0;orthogonalLoop=1;jettySize=auto;html=1;" parent="1" source="vPDebMbm3ik4Oxo3N3er-10" target="vPDebMbm3ik4Oxo3N3er-11" edge="1">
          <mxGeometry relative="1" as="geometry" />
        </mxCell>
        <mxCell id="vPDebMbm3ik4Oxo3N3er-10" value="registrar" style="rhombus;whiteSpace=wrap;html=1;" parent="1" vertex="1">
          <mxGeometry x="1190" y="340" width="80" height="80" as="geometry" />
        </mxCell>
        <mxCell id="vPDebMbm3ik4Oxo3N3er-11" value="prefecto" style="rounded=0;whiteSpace=wrap;html=1;" parent="1" vertex="1">
          <mxGeometry x="1400" y="340" width="120" height="60" as="geometry" />
        </mxCell>
        <mxCell id="K5R6cuAaFVcVwl4AerRk-3" style="edgeStyle=orthogonalEdgeStyle;rounded=0;orthogonalLoop=1;jettySize=auto;html=1;entryX=0;entryY=0.5;entryDx=0;entryDy=0;" parent="1" source="vPDebMbm3ik4Oxo3N3er-23" target="vPDebMbm3ik4Oxo3N3er-7" edge="1">
          <mxGeometry relative="1" as="geometry" />
        </mxCell>
        <mxCell id="vPDebMbm3ik4Oxo3N3er-23" value="tiene" style="rhombus;whiteSpace=wrap;html=1;" parent="1" vertex="1">
          <mxGeometry x="540" y="560" width="80" height="80" as="geometry" />
        </mxCell>
        <mxCell id="K5R6cuAaFVcVwl4AerRk-2" style="edgeStyle=orthogonalEdgeStyle;rounded=0;orthogonalLoop=1;jettySize=auto;html=1;entryX=0;entryY=0.5;entryDx=0;entryDy=0;" parent="1" source="vPDebMbm3ik4Oxo3N3er-24" target="vPDebMbm3ik4Oxo3N3er-23" edge="1">
          <mxGeometry relative="1" as="geometry" />
        </mxCell>
        <mxCell id="vPDebMbm3ik4Oxo3N3er-24" value="aulas" style="rounded=0;whiteSpace=wrap;html=1;" parent="1" vertex="1">
          <mxGeometry x="310" y="630" width="120" height="60" as="geometry" />
        </mxCell>
        <mxCell id="izEPtNt3eDwg3tz8a0CL-3" value="Coordinador" style="rounded=0;whiteSpace=wrap;html=1;" parent="1" vertex="1">
          <mxGeometry x="650" y="70" width="120" height="60" as="geometry" />
        </mxCell>
        <mxCell id="K5R6cuAaFVcVwl4AerRk-6" style="edgeStyle=orthogonalEdgeStyle;rounded=0;orthogonalLoop=1;jettySize=auto;html=1;" parent="1" source="izEPtNt3eDwg3tz8a0CL-4" target="izEPtNt3eDwg3tz8a0CL-3" edge="1">
          <mxGeometry relative="1" as="geometry" />
        </mxCell>
        <mxCell id="izEPtNt3eDwg3tz8a0CL-4" value="tiene" style="rhombus;whiteSpace=wrap;html=1;" parent="1" vertex="1">
          <mxGeometry x="660" y="185" width="100" height="110" as="geometry" />
        </mxCell>
        <mxCell id="K5R6cuAaFVcVwl4AerRk-7" value="Horario" style="ellipse;whiteSpace=wrap;html=1;" parent="1" vertex="1">
          <mxGeometry x="250" y="270" width="105" height="50" as="geometry" />
        </mxCell>
        <mxCell id="K5R6cuAaFVcVwl4AerRk-8" style="edgeStyle=orthogonalEdgeStyle;rounded=0;orthogonalLoop=1;jettySize=auto;html=1;entryX=0.406;entryY=0.055;entryDx=0;entryDy=0;entryPerimeter=0;" parent="1" source="K5R6cuAaFVcVwl4AerRk-7" target="vPDebMbm3ik4Oxo3N3er-3" edge="1">
          <mxGeometry relative="1" as="geometry" />
        </mxCell>
        <mxCell id="noH4qmnDrZ403niCY_iX-1" value="idcoordinador" style="ellipse;whiteSpace=wrap;html=1;" parent="1" vertex="1">
          <mxGeometry x="530" y="50" width="90" height="50" as="geometry" />
        </mxCell>
        <mxCell id="i-BFjBKBcoplYmaD2EoG-35" style="edgeStyle=orthogonalEdgeStyle;rounded=0;orthogonalLoop=1;jettySize=auto;html=1;" edge="1" parent="1" source="noH4qmnDrZ403niCY_iX-2" target="izEPtNt3eDwg3tz8a0CL-3">
          <mxGeometry relative="1" as="geometry" />
        </mxCell>
        <mxCell id="noH4qmnDrZ403niCY_iX-2" value="areacordinacion" style="ellipse;whiteSpace=wrap;html=1;" parent="1" vertex="1">
          <mxGeometry x="800" y="60" width="100" height="40" as="geometry" />
        </mxCell>
        <mxCell id="i-BFjBKBcoplYmaD2EoG-37" style="edgeStyle=orthogonalEdgeStyle;rounded=0;orthogonalLoop=1;jettySize=auto;html=1;exitX=0.5;exitY=1;exitDx=0;exitDy=0;entryX=0.5;entryY=0;entryDx=0;entryDy=0;" edge="1" parent="1" source="noH4qmnDrZ403niCY_iX-3" target="izEPtNt3eDwg3tz8a0CL-3">
          <mxGeometry relative="1" as="geometry" />
        </mxCell>
        <mxCell id="noH4qmnDrZ403niCY_iX-3" value="nombrecoordinador" style="ellipse;whiteSpace=wrap;html=1;" parent="1" vertex="1">
          <mxGeometry x="650" width="120" height="50" as="geometry" />
        </mxCell>
        <mxCell id="noH4qmnDrZ403niCY_iX-4" value="Idmateria" style="ellipse;whiteSpace=wrap;html=1;" parent="1" vertex="1">
          <mxGeometry x="160" y="320" width="120" height="50" as="geometry" />
        </mxCell>
        <mxCell id="noH4qmnDrZ403niCY_iX-5" value="Nombre materia" style="ellipse;whiteSpace=wrap;html=1;strokeColor=default;align=center;verticalAlign=middle;fontFamily=Helvetica;fontSize=12;fontColor=default;fillColor=default;" parent="1" vertex="1">
          <mxGeometry x="150" y="380" width="117.5" height="50" as="geometry" />
        </mxCell>
        <mxCell id="noH4qmnDrZ403niCY_iX-6" value="Descripcion " style="ellipse;whiteSpace=wrap;html=1;strokeColor=default;align=center;verticalAlign=middle;fontFamily=Helvetica;fontSize=12;fontColor=default;fillColor=default;" parent="1" vertex="1">
          <mxGeometry x="162.5" y="440" width="115" height="30" as="geometry" />
        </mxCell>
        <mxCell id="noH4qmnDrZ403niCY_iX-8" value="idmateria" style="ellipse;whiteSpace=wrap;html=1;strokeColor=default;align=center;verticalAlign=middle;fontFamily=Helvetica;fontSize=12;fontColor=default;fillColor=default;" parent="1" vertex="1">
          <mxGeometry x="510" y="440" width="100" height="30" as="geometry" />
        </mxCell>
        <mxCell id="noH4qmnDrZ403niCY_iX-9" value="idmaestro" style="ellipse;whiteSpace=wrap;html=1;strokeColor=default;align=center;verticalAlign=middle;fontFamily=Helvetica;fontSize=12;fontColor=default;fillColor=default;" parent="1" vertex="1">
          <mxGeometry x="540" y="310" width="80" height="40" as="geometry" />
        </mxCell>
        <mxCell id="i-BFjBKBcoplYmaD2EoG-10" style="edgeStyle=orthogonalEdgeStyle;rounded=0;orthogonalLoop=1;jettySize=auto;html=1;entryX=0;entryY=0.5;entryDx=0;entryDy=0;" edge="1" parent="1" source="noH4qmnDrZ403niCY_iX-10" target="vPDebMbm3ik4Oxo3N3er-24">
          <mxGeometry relative="1" as="geometry" />
        </mxCell>
        <mxCell id="noH4qmnDrZ403niCY_iX-10" value="idaula" style="ellipse;whiteSpace=wrap;html=1;strokeColor=default;align=center;verticalAlign=middle;fontFamily=Helvetica;fontSize=12;fontColor=default;fillColor=default;" parent="1" vertex="1">
          <mxGeometry x="180" y="640" width="110" height="40" as="geometry" />
        </mxCell>
        <mxCell id="i-BFjBKBcoplYmaD2EoG-12" style="edgeStyle=orthogonalEdgeStyle;rounded=0;orthogonalLoop=1;jettySize=auto;html=1;entryX=0;entryY=1;entryDx=0;entryDy=0;" edge="1" parent="1" source="noH4qmnDrZ403niCY_iX-11" target="vPDebMbm3ik4Oxo3N3er-24">
          <mxGeometry relative="1" as="geometry" />
        </mxCell>
        <mxCell id="noH4qmnDrZ403niCY_iX-11" value="nombreaula" style="ellipse;whiteSpace=wrap;html=1;strokeColor=default;align=center;verticalAlign=middle;fontFamily=Helvetica;fontSize=12;fontColor=default;fillColor=default;" parent="1" vertex="1">
          <mxGeometry x="218" y="710" width="112" height="40" as="geometry" />
        </mxCell>
        <mxCell id="i-BFjBKBcoplYmaD2EoG-13" style="edgeStyle=orthogonalEdgeStyle;rounded=0;orthogonalLoop=1;jettySize=auto;html=1;entryX=0;entryY=1;entryDx=0;entryDy=0;" edge="1" parent="1" source="noH4qmnDrZ403niCY_iX-12" target="vPDebMbm3ik4Oxo3N3er-23">
          <mxGeometry relative="1" as="geometry" />
        </mxCell>
        <mxCell id="noH4qmnDrZ403niCY_iX-12" value="idedificio" style="ellipse;whiteSpace=wrap;html=1;strokeColor=default;align=center;verticalAlign=middle;fontFamily=Helvetica;fontSize=12;fontColor=default;fillColor=default;" parent="1" vertex="1">
          <mxGeometry x="500" y="650" width="90" height="40" as="geometry" />
        </mxCell>
        <mxCell id="i-BFjBKBcoplYmaD2EoG-18" style="edgeStyle=orthogonalEdgeStyle;rounded=0;orthogonalLoop=1;jettySize=auto;html=1;" edge="1" parent="1" source="noH4qmnDrZ403niCY_iX-13" target="vPDebMbm3ik4Oxo3N3er-7">
          <mxGeometry relative="1" as="geometry" />
        </mxCell>
        <mxCell id="noH4qmnDrZ403niCY_iX-13" value="idedificio" style="ellipse;whiteSpace=wrap;html=1;strokeColor=default;align=center;verticalAlign=middle;fontFamily=Helvetica;fontSize=12;fontColor=default;fillColor=default;" parent="1" vertex="1">
          <mxGeometry x="870" y="650" width="100" height="40" as="geometry" />
        </mxCell>
        <mxCell id="noH4qmnDrZ403niCY_iX-14" value="Nombreedificio" style="ellipse;whiteSpace=wrap;html=1;strokeColor=default;align=center;verticalAlign=middle;fontFamily=Helvetica;fontSize=12;fontColor=default;fillColor=default;" parent="1" vertex="1">
          <mxGeometry x="870" y="710" width="100" height="40" as="geometry" />
        </mxCell>
        <mxCell id="i-BFjBKBcoplYmaD2EoG-20" style="edgeStyle=orthogonalEdgeStyle;rounded=0;orthogonalLoop=1;jettySize=auto;html=1;entryX=0.5;entryY=1;entryDx=0;entryDy=0;" edge="1" parent="1" source="noH4qmnDrZ403niCY_iX-15" target="vPDebMbm3ik4Oxo3N3er-7">
          <mxGeometry relative="1" as="geometry" />
        </mxCell>
        <mxCell id="noH4qmnDrZ403niCY_iX-15" value="ubicacion" style="ellipse;whiteSpace=wrap;html=1;strokeColor=default;align=center;verticalAlign=middle;fontFamily=Helvetica;fontSize=12;fontColor=default;fillColor=default;" parent="1" vertex="1">
          <mxGeometry x="825" y="760" width="90" height="30" as="geometry" />
        </mxCell>
        <mxCell id="i-BFjBKBcoplYmaD2EoG-17" style="edgeStyle=orthogonalEdgeStyle;rounded=0;orthogonalLoop=1;jettySize=auto;html=1;entryX=0.5;entryY=0;entryDx=0;entryDy=0;" edge="1" parent="1" source="noH4qmnDrZ403niCY_iX-16" target="vPDebMbm3ik4Oxo3N3er-7">
          <mxGeometry relative="1" as="geometry" />
        </mxCell>
        <mxCell id="noH4qmnDrZ403niCY_iX-16" value="numpiso" style="ellipse;whiteSpace=wrap;html=1;strokeColor=default;align=center;verticalAlign=middle;fontFamily=Helvetica;fontSize=12;fontColor=default;fillColor=default;" parent="1" vertex="1">
          <mxGeometry x="730" y="590" width="100" height="40" as="geometry" />
        </mxCell>
        <mxCell id="noH4qmnDrZ403niCY_iX-17" value="idaula" style="ellipse;whiteSpace=wrap;html=1;strokeColor=default;align=center;verticalAlign=middle;fontFamily=Helvetica;fontSize=12;fontColor=default;fillColor=default;" parent="1" vertex="1">
          <mxGeometry x="480" y="520" width="100" height="50" as="geometry" />
        </mxCell>
        <mxCell id="i-BFjBKBcoplYmaD2EoG-27" style="edgeStyle=orthogonalEdgeStyle;rounded=0;orthogonalLoop=1;jettySize=auto;html=1;entryX=1;entryY=0.75;entryDx=0;entryDy=0;" edge="1" parent="1" source="noH4qmnDrZ403niCY_iX-18" target="vPDebMbm3ik4Oxo3N3er-5">
          <mxGeometry relative="1" as="geometry" />
        </mxCell>
        <mxCell id="noH4qmnDrZ403niCY_iX-18" value="idmaestro" style="ellipse;whiteSpace=wrap;html=1;strokeColor=default;align=center;verticalAlign=middle;fontFamily=Helvetica;fontSize=12;fontColor=default;fillColor=default;" parent="1" vertex="1">
          <mxGeometry x="760" y="460" width="80" height="30" as="geometry" />
        </mxCell>
        <mxCell id="noH4qmnDrZ403niCY_iX-19" value="Nombremaestro" style="ellipse;whiteSpace=wrap;html=1;strokeColor=default;align=center;verticalAlign=middle;fontFamily=Helvetica;fontSize=12;fontColor=default;fillColor=default;rotation=-15;" parent="1" vertex="1">
          <mxGeometry x="585" y="480" width="100" height="30" as="geometry" />
        </mxCell>
        <mxCell id="i-BFjBKBcoplYmaD2EoG-28" style="edgeStyle=orthogonalEdgeStyle;rounded=0;orthogonalLoop=1;jettySize=auto;html=1;entryX=0.75;entryY=1;entryDx=0;entryDy=0;" edge="1" parent="1" source="noH4qmnDrZ403niCY_iX-20" target="vPDebMbm3ik4Oxo3N3er-5">
          <mxGeometry relative="1" as="geometry" />
        </mxCell>
        <mxCell id="noH4qmnDrZ403niCY_iX-20" value="CorreoElectronico" style="ellipse;whiteSpace=wrap;html=1;strokeColor=default;align=center;verticalAlign=middle;fontFamily=Helvetica;fontSize=12;fontColor=default;fillColor=default;" parent="1" vertex="1">
          <mxGeometry x="790" y="500" width="110" height="30" as="geometry" />
        </mxCell>
        <mxCell id="i-BFjBKBcoplYmaD2EoG-21" style="edgeStyle=orthogonalEdgeStyle;rounded=0;orthogonalLoop=1;jettySize=auto;html=1;entryX=0.5;entryY=1;entryDx=0;entryDy=0;" edge="1" parent="1" source="noH4qmnDrZ403niCY_iX-21" target="vPDebMbm3ik4Oxo3N3er-5">
          <mxGeometry relative="1" as="geometry" />
        </mxCell>
        <mxCell id="noH4qmnDrZ403niCY_iX-21" value="TelContacto" style="ellipse;whiteSpace=wrap;html=1;strokeColor=default;align=center;verticalAlign=middle;fontFamily=Helvetica;fontSize=12;fontColor=default;fillColor=default;" parent="1" vertex="1">
          <mxGeometry x="685" y="520" width="85" height="30" as="geometry" />
        </mxCell>
        <mxCell id="i-BFjBKBcoplYmaD2EoG-29" style="edgeStyle=orthogonalEdgeStyle;rounded=0;orthogonalLoop=1;jettySize=auto;html=1;exitX=1;exitY=1;exitDx=0;exitDy=0;entryX=0;entryY=0;entryDx=0;entryDy=0;" edge="1" parent="1" source="noH4qmnDrZ403niCY_iX-22" target="vPDebMbm3ik4Oxo3N3er-8">
          <mxGeometry relative="1" as="geometry" />
        </mxCell>
        <mxCell id="noH4qmnDrZ403niCY_iX-22" value="idmaestro" style="ellipse;whiteSpace=wrap;html=1;strokeColor=default;align=center;verticalAlign=middle;fontFamily=Helvetica;fontSize=12;fontColor=default;fillColor=default;" parent="1" vertex="1">
          <mxGeometry x="735" y="320" width="105" height="40" as="geometry" />
        </mxCell>
        <mxCell id="i-BFjBKBcoplYmaD2EoG-30" style="edgeStyle=orthogonalEdgeStyle;rounded=0;orthogonalLoop=1;jettySize=auto;html=1;exitX=0.5;exitY=1;exitDx=0;exitDy=0;entryX=0.5;entryY=0;entryDx=0;entryDy=0;" edge="1" parent="1" source="noH4qmnDrZ403niCY_iX-23" target="vPDebMbm3ik4Oxo3N3er-8">
          <mxGeometry relative="1" as="geometry" />
        </mxCell>
        <mxCell id="noH4qmnDrZ403niCY_iX-23" value="idasistencia" style="ellipse;whiteSpace=wrap;html=1;strokeColor=default;align=center;verticalAlign=middle;fontFamily=Helvetica;fontSize=12;fontColor=default;fillColor=default;" parent="1" vertex="1">
          <mxGeometry x="820" y="285" width="100" height="35" as="geometry" />
        </mxCell>
        <mxCell id="noH4qmnDrZ403niCY_iX-24" value="idhorario" style="ellipse;whiteSpace=wrap;html=1;strokeColor=default;align=center;verticalAlign=middle;fontFamily=Helvetica;fontSize=12;fontColor=default;fillColor=default;" parent="1" vertex="1">
          <mxGeometry x="950" y="310" width="110" height="30" as="geometry" />
        </mxCell>
        <mxCell id="noH4qmnDrZ403niCY_iX-25" value="fecha" style="ellipse;whiteSpace=wrap;html=1;strokeColor=default;align=center;verticalAlign=middle;fontFamily=Helvetica;fontSize=12;fontColor=default;fillColor=default;" parent="1" vertex="1">
          <mxGeometry x="1010" y="450" width="100" height="20" as="geometry" />
        </mxCell>
        <mxCell id="i-BFjBKBcoplYmaD2EoG-40" style="edgeStyle=orthogonalEdgeStyle;rounded=0;orthogonalLoop=1;jettySize=auto;html=1;exitX=0;exitY=1;exitDx=0;exitDy=0;entryX=0.75;entryY=0;entryDx=0;entryDy=0;" edge="1" parent="1" source="noH4qmnDrZ403niCY_iX-26" target="vPDebMbm3ik4Oxo3N3er-9">
          <mxGeometry relative="1" as="geometry" />
        </mxCell>
        <mxCell id="noH4qmnDrZ403niCY_iX-26" value="presente" style="ellipse;whiteSpace=wrap;html=1;strokeColor=default;align=center;verticalAlign=middle;fontFamily=Helvetica;fontSize=12;fontColor=default;fillColor=default;" parent="1" vertex="1">
          <mxGeometry x="1070" y="320" width="100" height="30" as="geometry" />
        </mxCell>
        <mxCell id="noH4qmnDrZ403niCY_iX-27" value="idhorario" style="ellipse;whiteSpace=wrap;html=1;strokeColor=default;align=center;verticalAlign=middle;fontFamily=Helvetica;fontSize=12;fontColor=default;fillColor=default;" parent="1" vertex="1">
          <mxGeometry x="1120" y="420" width="90" height="40" as="geometry" />
        </mxCell>
        <mxCell id="noH4qmnDrZ403niCY_iX-28" value="Tipoactividad" style="ellipse;whiteSpace=wrap;html=1;strokeColor=default;align=center;verticalAlign=middle;fontFamily=Helvetica;fontSize=12;fontColor=default;fillColor=default;" parent="1" vertex="1">
          <mxGeometry x="1200" y="280" width="100" height="40" as="geometry" />
        </mxCell>
        <mxCell id="noH4qmnDrZ403niCY_iX-30" value="fecha" style="ellipse;whiteSpace=wrap;html=1;strokeColor=default;align=center;verticalAlign=middle;fontFamily=Helvetica;fontSize=12;fontColor=default;fillColor=default;" parent="1" vertex="1">
          <mxGeometry x="1200" y="610" width="80" height="40" as="geometry" />
        </mxCell>
        <mxCell id="noH4qmnDrZ403niCY_iX-31" value="lugar" style="ellipse;whiteSpace=wrap;html=1;strokeColor=default;align=center;verticalAlign=middle;fontFamily=Helvetica;fontSize=12;fontColor=default;fillColor=default;" parent="1" vertex="1">
          <mxGeometry x="1195" y="475" width="70" height="30" as="geometry" />
        </mxCell>
        <mxCell id="noH4qmnDrZ403niCY_iX-32" value="idprefecto" style="ellipse;whiteSpace=wrap;html=1;strokeColor=default;align=center;verticalAlign=middle;fontFamily=Helvetica;fontSize=12;fontColor=default;fillColor=default;" parent="1" vertex="1">
          <mxGeometry x="1410" y="250" width="80" height="35" as="geometry" />
        </mxCell>
        <mxCell id="i-BFjBKBcoplYmaD2EoG-48" style="edgeStyle=orthogonalEdgeStyle;rounded=0;orthogonalLoop=1;jettySize=auto;html=1;exitX=0;exitY=0.5;exitDx=0;exitDy=0;" edge="1" parent="1" source="noH4qmnDrZ403niCY_iX-33" target="vPDebMbm3ik4Oxo3N3er-11">
          <mxGeometry relative="1" as="geometry" />
        </mxCell>
        <mxCell id="noH4qmnDrZ403niCY_iX-33" value="nombreprefecto" style="ellipse;whiteSpace=wrap;html=1;strokeColor=default;align=center;verticalAlign=middle;fontFamily=Helvetica;fontSize=12;fontColor=default;fillColor=default;" parent="1" vertex="1">
          <mxGeometry x="1560" y="346.5" width="100" height="47" as="geometry" />
        </mxCell>
        <mxCell id="noH4qmnDrZ403niCY_iX-34" value="idmaestro" style="ellipse;whiteSpace=wrap;html=1;strokeColor=default;align=center;verticalAlign=middle;fontFamily=Helvetica;fontSize=12;fontColor=default;fillColor=default;" parent="1" vertex="1">
          <mxGeometry x="560" y="200" width="100" height="40" as="geometry" />
        </mxCell>
        <mxCell id="noH4qmnDrZ403niCY_iX-35" value="areacoordinacion" style="ellipse;whiteSpace=wrap;html=1;strokeColor=default;align=center;verticalAlign=middle;fontFamily=Helvetica;fontSize=12;fontColor=default;fillColor=default;" parent="1" vertex="1">
          <mxGeometry x="745" y="185" width="95" height="40" as="geometry" />
        </mxCell>
        <mxCell id="i-BFjBKBcoplYmaD2EoG-1" value="idmateria" style="ellipse;whiteSpace=wrap;html=1;" vertex="1" parent="1">
          <mxGeometry x="200" y="510" width="90" height="40" as="geometry" />
        </mxCell>
        <mxCell id="i-BFjBKBcoplYmaD2EoG-2" value="idaula" style="ellipse;whiteSpace=wrap;html=1;" vertex="1" parent="1">
          <mxGeometry x="280" y="560" width="80" height="30" as="geometry" />
        </mxCell>
        <mxCell id="i-BFjBKBcoplYmaD2EoG-3" style="edgeStyle=orthogonalEdgeStyle;rounded=0;orthogonalLoop=1;jettySize=auto;html=1;entryX=0.188;entryY=0.65;entryDx=0;entryDy=0;entryPerimeter=0;" edge="1" parent="1" source="i-BFjBKBcoplYmaD2EoG-2" target="vPDebMbm3ik4Oxo3N3er-6">
          <mxGeometry relative="1" as="geometry" />
        </mxCell>
        <mxCell id="i-BFjBKBcoplYmaD2EoG-5" style="edgeStyle=orthogonalEdgeStyle;rounded=0;orthogonalLoop=1;jettySize=auto;html=1;entryX=0.2;entryY=0.338;entryDx=0;entryDy=0;entryPerimeter=0;" edge="1" parent="1" source="i-BFjBKBcoplYmaD2EoG-1" target="vPDebMbm3ik4Oxo3N3er-6">
          <mxGeometry relative="1" as="geometry" />
        </mxCell>
        <mxCell id="i-BFjBKBcoplYmaD2EoG-7" style="edgeStyle=orthogonalEdgeStyle;rounded=0;orthogonalLoop=1;jettySize=auto;html=1;entryX=0.142;entryY=1;entryDx=0;entryDy=0;entryPerimeter=0;" edge="1" parent="1" source="noH4qmnDrZ403niCY_iX-6" target="vPDebMbm3ik4Oxo3N3er-3">
          <mxGeometry relative="1" as="geometry" />
        </mxCell>
        <mxCell id="i-BFjBKBcoplYmaD2EoG-8" style="edgeStyle=orthogonalEdgeStyle;rounded=0;orthogonalLoop=1;jettySize=auto;html=1;entryX=0.008;entryY=0.65;entryDx=0;entryDy=0;entryPerimeter=0;" edge="1" parent="1" source="noH4qmnDrZ403niCY_iX-5" target="vPDebMbm3ik4Oxo3N3er-3">
          <mxGeometry relative="1" as="geometry" />
        </mxCell>
        <mxCell id="i-BFjBKBcoplYmaD2EoG-9" style="edgeStyle=orthogonalEdgeStyle;rounded=0;orthogonalLoop=1;jettySize=auto;html=1;entryX=0.017;entryY=0.15;entryDx=0;entryDy=0;entryPerimeter=0;" edge="1" parent="1" source="noH4qmnDrZ403niCY_iX-4" target="vPDebMbm3ik4Oxo3N3er-3">
          <mxGeometry relative="1" as="geometry" />
        </mxCell>
        <mxCell id="i-BFjBKBcoplYmaD2EoG-14" style="edgeStyle=orthogonalEdgeStyle;rounded=0;orthogonalLoop=1;jettySize=auto;html=1;entryX=0.125;entryY=0.375;entryDx=0;entryDy=0;entryPerimeter=0;" edge="1" parent="1" source="noH4qmnDrZ403niCY_iX-17" target="vPDebMbm3ik4Oxo3N3er-23">
          <mxGeometry relative="1" as="geometry" />
        </mxCell>
        <mxCell id="i-BFjBKBcoplYmaD2EoG-19" style="edgeStyle=orthogonalEdgeStyle;rounded=0;orthogonalLoop=1;jettySize=auto;html=1;entryX=0.925;entryY=0.967;entryDx=0;entryDy=0;entryPerimeter=0;" edge="1" parent="1" source="noH4qmnDrZ403niCY_iX-14" target="vPDebMbm3ik4Oxo3N3er-7">
          <mxGeometry relative="1" as="geometry" />
        </mxCell>
        <mxCell id="i-BFjBKBcoplYmaD2EoG-22" style="edgeStyle=orthogonalEdgeStyle;rounded=0;orthogonalLoop=1;jettySize=auto;html=1;exitX=0.5;exitY=0;exitDx=0;exitDy=0;entryX=0.117;entryY=0.967;entryDx=0;entryDy=0;entryPerimeter=0;" edge="1" parent="1" source="noH4qmnDrZ403niCY_iX-19" target="vPDebMbm3ik4Oxo3N3er-5">
          <mxGeometry relative="1" as="geometry" />
        </mxCell>
        <mxCell id="i-BFjBKBcoplYmaD2EoG-23" style="edgeStyle=orthogonalEdgeStyle;rounded=0;orthogonalLoop=1;jettySize=auto;html=1;exitX=0.5;exitY=0;exitDx=0;exitDy=0;entryX=0.6;entryY=0.913;entryDx=0;entryDy=0;entryPerimeter=0;" edge="1" parent="1" source="noH4qmnDrZ403niCY_iX-8" target="vPDebMbm3ik4Oxo3N3er-4">
          <mxGeometry relative="1" as="geometry" />
        </mxCell>
        <mxCell id="i-BFjBKBcoplYmaD2EoG-24" style="edgeStyle=orthogonalEdgeStyle;rounded=0;orthogonalLoop=1;jettySize=auto;html=1;exitX=0.5;exitY=1;exitDx=0;exitDy=0;entryX=0.638;entryY=0.25;entryDx=0;entryDy=0;entryPerimeter=0;" edge="1" parent="1" source="noH4qmnDrZ403niCY_iX-9" target="vPDebMbm3ik4Oxo3N3er-4">
          <mxGeometry relative="1" as="geometry" />
        </mxCell>
        <mxCell id="i-BFjBKBcoplYmaD2EoG-32" style="edgeStyle=orthogonalEdgeStyle;rounded=0;orthogonalLoop=1;jettySize=auto;html=1;entryX=0.9;entryY=0.618;entryDx=0;entryDy=0;entryPerimeter=0;" edge="1" parent="1" source="noH4qmnDrZ403niCY_iX-35" target="izEPtNt3eDwg3tz8a0CL-4">
          <mxGeometry relative="1" as="geometry" />
        </mxCell>
        <mxCell id="i-BFjBKBcoplYmaD2EoG-33" style="edgeStyle=orthogonalEdgeStyle;rounded=0;orthogonalLoop=1;jettySize=auto;html=1;entryX=0.05;entryY=0.582;entryDx=0;entryDy=0;entryPerimeter=0;" edge="1" parent="1" source="noH4qmnDrZ403niCY_iX-34" target="izEPtNt3eDwg3tz8a0CL-4">
          <mxGeometry relative="1" as="geometry" />
        </mxCell>
        <mxCell id="i-BFjBKBcoplYmaD2EoG-36" style="edgeStyle=orthogonalEdgeStyle;rounded=0;orthogonalLoop=1;jettySize=auto;html=1;entryX=0.083;entryY=0.333;entryDx=0;entryDy=0;entryPerimeter=0;" edge="1" parent="1" source="noH4qmnDrZ403niCY_iX-1" target="izEPtNt3eDwg3tz8a0CL-3">
          <mxGeometry relative="1" as="geometry" />
        </mxCell>
        <mxCell id="i-BFjBKBcoplYmaD2EoG-38" style="edgeStyle=orthogonalEdgeStyle;rounded=0;orthogonalLoop=1;jettySize=auto;html=1;entryX=0.592;entryY=0.95;entryDx=0;entryDy=0;entryPerimeter=0;" edge="1" parent="1" source="noH4qmnDrZ403niCY_iX-25" target="vPDebMbm3ik4Oxo3N3er-9">
          <mxGeometry relative="1" as="geometry" />
        </mxCell>
        <mxCell id="i-BFjBKBcoplYmaD2EoG-39" style="edgeStyle=orthogonalEdgeStyle;rounded=0;orthogonalLoop=1;jettySize=auto;html=1;exitX=0.5;exitY=1;exitDx=0;exitDy=0;entryX=0.442;entryY=-0.067;entryDx=0;entryDy=0;entryPerimeter=0;" edge="1" parent="1" source="noH4qmnDrZ403niCY_iX-24" target="vPDebMbm3ik4Oxo3N3er-9">
          <mxGeometry relative="1" as="geometry" />
        </mxCell>
        <mxCell id="i-BFjBKBcoplYmaD2EoG-41" style="edgeStyle=orthogonalEdgeStyle;rounded=0;orthogonalLoop=1;jettySize=auto;html=1;entryX=0.838;entryY=0.188;entryDx=0;entryDy=0;entryPerimeter=0;" edge="1" parent="1" source="noH4qmnDrZ403niCY_iX-28" target="vPDebMbm3ik4Oxo3N3er-10">
          <mxGeometry relative="1" as="geometry" />
        </mxCell>
        <mxCell id="i-BFjBKBcoplYmaD2EoG-42" style="edgeStyle=orthogonalEdgeStyle;rounded=0;orthogonalLoop=1;jettySize=auto;html=1;exitX=0.5;exitY=0;exitDx=0;exitDy=0;entryX=0.513;entryY=0.925;entryDx=0;entryDy=0;entryPerimeter=0;" edge="1" parent="1" source="noH4qmnDrZ403niCY_iX-31" target="vPDebMbm3ik4Oxo3N3er-10">
          <mxGeometry relative="1" as="geometry" />
        </mxCell>
        <mxCell id="i-BFjBKBcoplYmaD2EoG-43" style="edgeStyle=orthogonalEdgeStyle;rounded=0;orthogonalLoop=1;jettySize=auto;html=1;exitX=0;exitY=0;exitDx=0;exitDy=0;entryX=0.075;entryY=0.625;entryDx=0;entryDy=0;entryPerimeter=0;" edge="1" parent="1" source="noH4qmnDrZ403niCY_iX-27" target="vPDebMbm3ik4Oxo3N3er-10">
          <mxGeometry relative="1" as="geometry" />
        </mxCell>
        <mxCell id="i-BFjBKBcoplYmaD2EoG-44" style="edgeStyle=orthogonalEdgeStyle;rounded=0;orthogonalLoop=1;jettySize=auto;html=1;exitX=0.5;exitY=0;exitDx=0;exitDy=0;entryX=0.85;entryY=0.688;entryDx=0;entryDy=0;entryPerimeter=0;" edge="1" parent="1" source="noH4qmnDrZ403niCY_iX-29" target="vPDebMbm3ik4Oxo3N3er-10">
          <mxGeometry relative="1" as="geometry" />
        </mxCell>
        <mxCell id="i-BFjBKBcoplYmaD2EoG-45" style="edgeStyle=orthogonalEdgeStyle;rounded=0;orthogonalLoop=1;jettySize=auto;html=1;entryX=0.392;entryY=-0.033;entryDx=0;entryDy=0;entryPerimeter=0;" edge="1" parent="1" source="noH4qmnDrZ403niCY_iX-32" target="vPDebMbm3ik4Oxo3N3er-11">
          <mxGeometry relative="1" as="geometry" />
        </mxCell>
      </root>
    </mxGraphModel>
  </diagram>
</mxfile>
